<svg width="111" height="239" viewBox="0 0 111 239" fill="none" xmlns="http://www.w3.org/2000/svg">
<g filter="url(#filter0_d_744_39763)">
<path opacity="0.2" d="M68.0539 224.172C67.0712 222.803 65.6606 221.888 64.2833 221.005C63.5019 220.504 62.5592 219.988 61.7312 220.388C61.2232 220.633 60.8899 221.173 60.6473 221.721C55.3366 233.852 74.1899 232.696 68.0539 224.172Z" fill="#D7D5D5"/>
<path opacity="0.2" d="M56.0728 195.105C58.2382 191.385 62.7061 190.42 66.6208 189.421C69.0915 188.785 71.5822 187.969 73.5395 186.307C75.4968 184.641 76.8368 181.966 76.3795 179.243C75.9755 176.835 74.2328 174.772 72.1928 173.6C70.1515 172.431 67.8382 172.038 65.5662 171.88C62.7635 171.679 59.5302 172.041 57.9368 174.528C57.1235 175.796 56.8635 177.453 55.8688 178.564C54.0635 180.58 50.9528 179.827 48.4675 180.697C44.9222 181.938 43.0568 186.464 43.3181 190.428C43.5808 194.396 45.4515 197.966 47.2715 201.417C48.6088 203.927 53.2702 213.968 55.9222 209.461C58.1355 205.716 53.3422 199.803 56.0728 195.105Z" fill="#D7D5D5"/>
<path opacity="0.2" d="M92.9756 163.688C95.2942 161.293 95.9382 156.912 93.7129 153.545C91.1729 149.699 86.4169 149.007 82.3449 149.007C81.4422 149.723 81.9076 151.431 82.7396 152.471C83.5716 153.511 84.7036 154.323 85.2636 155.535C89.1543 163.721 74.4502 158.109 76.7409 163.688C79.5462 170.095 90.3409 166.3 92.9756 163.688Z" fill="#D7D5D5"/>
<path opacity="0.2" d="M29.4947 138.22C29.0614 135.703 26.1547 134.495 23.912 135.94C22.596 137.808 22.5653 140.428 23.8413 141.795C25.116 143.165 27.7867 139.629 29.4947 138.22Z" fill="#D7D5D5"/>
<path opacity="0.2" d="M15.7255 93.5721C17.1935 91.1747 19.5882 89.6361 21.8548 88.9774C24.1188 88.3121 26.3535 88.3521 28.6535 88.1134C33.7922 87.5614 39.5309 85.4921 43.5762 81.3334C44.5789 80.2974 45.5296 78.7934 45.0002 77.5587C44.5349 76.4787 43.1348 76.2587 41.9828 76.6334C40.8335 77.0054 39.8042 77.8067 38.6895 78.3334C35.6282 79.7801 32.4002 79.0761 29.7069 78.1241C27.0149 77.1681 24.4162 75.9614 21.4349 76.5707C16.5855 77.5721 12.2255 82.9627 8.54149 87.9867C6.99483 90.0947 5.39221 92.4321 4.82554 94.7721C4.07088 97.8827 5.37753 99.8481 6.68153 101.563C7.74953 102.967 8.92151 104.456 10.8268 104.652C17.7722 105.537 13.5215 97.2307 15.7255 93.5721Z" fill="#D7D5D5"/>
<path opacity="0.2" d="M77.3348 56.2348C83.0708 54.5388 89.4414 53.8255 95.0214 58.8228C97.1494 60.7175 98.9988 63.2415 101.081 65.1508C103.171 67.0468 105.732 68.2802 106.551 66.7588C107.476 65.0415 105.764 61.0042 103.903 58.0042C96.7307 46.1842 85.6654 39.7122 74.8107 38.8868C72.8601 38.7055 70.8134 38.6948 69.2294 39.6962C67.6441 40.6988 66.7254 42.9922 67.7054 44.9175C68.3441 46.1708 69.6801 47.1882 69.8081 48.5441C70.0174 50.7148 67.2614 51.1068 65.2294 51.4121C62.2254 51.5442 49.3721 62.0828 54.8774 65.1495C58.0041 66.3562 74.5308 56.5135 77.3348 56.2348Z" fill="#D7D5D5"/>
<path opacity="0.2" d="M40.9494 15.5602C39.3708 14.2415 36.8601 14.3388 34.8028 15.7002C32.7441 17.0508 31.1854 19.5002 30.6161 21.8735C30.2134 23.5588 30.3348 25.3268 31.3922 26.1442C32.5882 27.0695 34.5468 26.5628 36.3095 26.1068C38.7068 25.4642 41.6708 25.6135 42.7361 22.7522C42.9201 22.2455 41.2214 15.7775 40.9494 15.5602Z" fill="#D7D5D5"/>
<path opacity="0.2" d="M72.3476 0.930728C72.3463 0.930728 72.3462 0.930728 72.3462 0.930728C72.1169 1.00273 71.8996 1.10139 71.6943 1.22806C67.7756 3.72273 71.7183 6.35873 74.733 5.16139C78.5676 3.73206 76.5449 -0.350605 72.3476 0.930728Z" fill="#D7D5D5"/>
</g>
<defs>
<filter id="filter0_d_744_39763" x="0.603516" y="0.685303" width="110.206" height="238.014" filterUnits="userSpaceOnUse" color-interpolation-filters="sRGB">
<feFlood flood-opacity="0" result="BackgroundImageFix"/>
<feColorMatrix in="SourceAlpha" type="matrix" values="0 0 0 0 0 0 0 0 0 0 0 0 0 0 0 0 0 0 127 0" result="hardAlpha"/>
<feOffset dy="4"/>
<feGaussianBlur stdDeviation="2"/>
<feComposite in2="hardAlpha" operator="out"/>
<feColorMatrix type="matrix" values="0 0 0 0 0 0 0 0 0 0 0 0 0 0 0 0 0 0 0.25 0"/>
<feBlend mode="normal" in2="BackgroundImageFix" result="effect1_dropShadow_744_39763"/>
<feBlend mode="normal" in="SourceGraphic" in2="effect1_dropShadow_744_39763" result="shape"/>
</filter>
</defs>
</svg>
